<?xml version="1.0" encoding="UTF-8"?>
<!-- Generator: Adobe Illustrator 15.0.2, SVG Export Plug-In . SVG Version: 6.00 Build 0)  -->
<!DOCTYPE svg PUBLIC "-//W3C//DTD SVG 1.1//EN" "http://www.w3.org/Graphics/SVG/1.1/DTD/svg11.dtd">
<svg xmlns="http://www.w3.org/2000/svg" xmlns:xlink="http://www.w3.org/1999/xlink" version="1.1" id="Layer_1" x="0px" y="0px" width="512px" height="1060.024px" viewBox="0 0 512 1060.024" enable-background="new 0 0 512 1060.024" xml:space="preserve">
<g>
	<path fill="#000000" d="M247.092,0c63.157,0,114.371,51.207,114.371,114.371s-51.214,114.371-114.371,114.371   c-63.164,0-114.371-51.207-114.371-114.371S183.928,0,247.092,0z"/>
	<path fill="#000000" d="M463.635,259.507v-0.554H53.881v0.372c-29.617,0-53.618,23.905-53.84,53.469H0v324.082h0.54   c-0.027,12.341,4.658,24.682,14.076,34.106c18.775,18.795,49.223,18.795,68.011,0c9.404-9.425,14.09-21.766,14.062-34.106h0.108   V413.008v-2.376h0.128c0.345-8.189,6.981-14.718,15.225-14.718c8.263,0,14.899,6.542,15.244,14.718h0.128v2.376v144.34v446.493   c0.04,31.056,25.188,56.184,56.244,56.184c31.055,0,56.243-25.183,56.243-56.237V705.076h0.419c0-8.615,6.967-15.596,15.568-15.596   c8.601,0,15.581,6.98,15.581,15.596h0.405v298.711c0,31.055,25.195,56.237,56.25,56.237c31.083,0,56.251-25.183,56.251-56.237   V705.076V557.374V413.021v-2.376c0-8.507,6.873-15.38,15.365-15.38c8.479,0,15.366,6.873,15.366,15.38v2.376v223.854h0.513   c-0.026,12.354,4.672,24.709,14.069,34.106c18.796,18.795,49.243,18.795,68.024,0c9.425-9.397,14.11-21.752,14.083-34.106H512   V312.794C512.027,284.932,490.774,262.282,463.635,259.507z"/>
</g>
</svg>
