<?xml version="1.0" encoding="UTF-8"?>
<!-- Generator: Adobe Illustrator 15.0.2, SVG Export Plug-In . SVG Version: 6.00 Build 0)  -->
<!DOCTYPE svg PUBLIC "-//W3C//DTD SVG 1.1//EN" "http://www.w3.org/Graphics/SVG/1.1/DTD/svg11.dtd">
<svg xmlns="http://www.w3.org/2000/svg" xmlns:xlink="http://www.w3.org/1999/xlink" version="1.1" id="Layer_1" x="0px" y="0px" width="512px" height="878.437px" viewBox="0 0 512 878.437" enable-background="new 0 0 512 878.437" xml:space="preserve">
<g>
	<path fill="#000000" d="M247.266,0c52.355,0,94.777,42.438,94.777,94.788s-42.422,94.783-94.777,94.783   c-52.35,0-94.788-42.434-94.788-94.783S194.916,0,247.266,0z"/>
	<path fill="#000000" d="M512,486.63l-63.226-235.978c-0.034-0.187-0.103-0.355-0.147-0.542l-1.106-4.148l-0.157,0.045   c-5.78-17.988-22.441-31.094-42.332-31.094c-0.157,0-0.305,0.045-0.451,0.045v-0.823H106.979v0.778   c-19.901,0-36.562,13.105-42.331,31.094l-0.158-0.045l-1.111,4.137c-0.046,0.198-0.113,0.367-0.147,0.564L0,486.63l0.598,0.157   C0.311,488.74,0,490.682,0,492.714c0,22.238,18.033,40.288,40.282,40.288c17.04,0,31.523-10.634,37.41-25.579l0.276,0.079   l46.384-173.09v0.66h0.361c1.27-5.701,6.112-10.047,12.18-10.047c6.085,0,10.928,4.357,12.197,10.047h0.384v1.856   c0.022,0.288,0.158,0.536,0.158,0.824s-0.146,0.53-0.158,0.818v1.767L75.214,617.507c-1.202,2.438-1.93,5.113-2.128,7.946   l-0.157,0.599l0.09,0.022c-0.011,0.305-0.09,0.609-0.09,0.938c0,11.942,9.686,21.617,21.628,21.617h54.918v183.198   c0,25.737,20.861,46.609,46.604,46.609c25.743,0,46.61-20.872,46.61-46.609V648.629h26.499v183.198   c0,25.737,20.884,46.609,46.621,46.609s46.609-20.872,46.609-46.609V648.629h55.076c11.943,0,21.628-9.675,21.628-21.617   c0-0.328-0.079-0.633-0.09-0.938l0.09-0.022l-0.157-0.599c-0.204-2.833-0.938-5.508-2.123-7.946l-74.028-276.311l0.248-0.068   c-0.316-1.101-0.688-2.173-0.688-3.363c0-7.027,5.7-12.739,12.744-12.739c5.983,0,10.77,4.216,12.124,9.787l0.497-0.124   l46.305,172.824l0.271-0.067c5.893,14.945,20.364,25.568,37.409,25.568c22.25,0,40.277-18.051,40.277-40.288   c0-2.032-0.305-3.974-0.587-5.927L512,486.63z"/>
</g>
</svg>
